# xmcd
#
# Track frame offsets: 
#        150
#        23890
#        42285
#        57360
#        76868
#        91096
#        110395
#        129705
#        143892
#        158293
#        177108
#        193107
#        208448
#        227414
#        247206
#
# Disc length: 3486 seconds
#
# Revision: 2
# Processed by: cddbd v1.5PL3 Copyright (c) Steve Scherf et al.
# Submitted via: ExactAudioCopy v0.95a4
#
DISCID=c60d9c0f
DTITLE=Marco Brasil - Festa de Rodeio Vol. 2
DYEAR=1998
DGENRE=Country
TTITLE0=Abertura - Marco Brasil
TTITLE1=Cerveja - Leandro and Leonardo
TTITLE2=Vanerão Do Coroa - Sérgio Reis
TTITLE3=Saudade Pesada - Rick and Renner
TTITLE4=Diggy Liggy Lo - Mark O'Connor
TTITLE5=Forró-Bailão - Cezar and Paulinho
TTITLE6=A Loira Do Carro Branco - João Paulo and Daniel
TTITLE7=Oi Paixão - Tião Carreiro and Pardinho
TTITLE8=O Campeão - Bruno and Marrone
TTITLE9=La Cautiva - Christian and Ralf
TTITLE10=Vá Pro Inferno Com Seu Amor - Milionário and José Rico
TTITLE11=Segura O Tchê! - Gaúcho Da Fronteira
TTITLE12=De Que Planeta Você Veio - Gian and Giovani
TTITLE13=A Thousand Milles From Nowhere - Dwight Yoakan
TTITLE14=Festa Cowtry - Banda Búfalo
EXTD=
EXTT0=
EXTT1=
EXTT2=
EXTT3=
EXTT4=
EXTT5=
EXTT6=
EXTT7=
EXTT8=
EXTT9=
EXTT10=
EXTT11=
EXTT12=
EXTT13=
EXTT14=
PLAYORDER=
